<svg id="Layer_2" height="512" viewBox="0 0 128 128" width="512" xmlns="http://www.w3.org/2000/svg" data-name="Layer 2"><path d="m118.861 90.411-.011-.01-9.05-9.052-8.66-8.659a1.755 1.755 0 0 0 -1.553-.484l-16.507 3.025-11.231-11.231 33.28-33.281.655 10.239a1.75 1.75 0 0 0 2.984 1.126 60.612 60.612 0 0 0 15.551-26.724l3.618-13.145a1.75 1.75 0 0 0 -2.152-2.152l-13.145 3.618a60.612 60.612 0 0 0 -26.724 15.551 1.75 1.75 0 0 0 1.126 2.984l10.239.655-33.281 33.28-33.281-33.28 10.239-.655a1.75 1.75 0 0 0 1.126-2.984 60.612 60.612 0 0 0 -26.724-15.551l-13.145-3.618a1.751 1.751 0 0 0 -2.153 2.152l3.619 13.145a60.612 60.612 0 0 0 15.551 26.724 1.75 1.75 0 0 0 2.984-1.126l.655-10.239 33.28 33.281-11.231 11.231-16.507-3.025a1.763 1.763 0 0 0 -1.553.484l-8.654 8.655-.006.006-9.053 9.049-.005.005-8.629 8.633a1.75 1.75 0 0 0 .922 2.962l14.13 2.589-4.752 4.752a1.751 1.751 0 0 0 0 2.475l5.374 5.374a1.752 1.752 0 0 0 2.475 0l4.752-4.752 2.586 14.127a1.75 1.75 0 0 0 2.959.922l8.625-8.625.015-.015 9.051-9.047 8.656-8.655a1.752 1.752 0 0 0 .484-1.553l-3.021-16.512 11.231-11.231 11.231 11.231-3.025 16.507a1.752 1.752 0 0 0 .484 1.553l8.656 8.655 9.048 9.047.015.015 8.625 8.625a1.75 1.75 0 0 0 2.959-.922l2.589-14.13 4.752 4.752a1.75 1.75 0 0 0 2.474 0l5.375-5.374a1.751 1.751 0 0 0 0-2.475l-4.752-4.752 14.134-2.581a1.75 1.75 0 0 0 .922-2.959zm-24.128-3.527 13.226-2.425 6.051 6.051-13.227 2.424zm4.581-11.07 5.638 5.638-13.227 2.424-5.638-5.638zm14.255-68.758 10.177-2.8-2.8 10.177a57.116 57.116 0 0 1 -11.926 22.255l-.643-10.05-.323-5.051a1.749 1.749 0 0 0 -1.635-1.635l-5.051-.323-10.05-.643a57.116 57.116 0 0 1 22.251-11.93zm-11.637 16.112 2.725.175.175 2.725-35.458 35.457-2.9-2.9zm-82.95 13.518a57.116 57.116 0 0 1 -11.926-22.255l-2.802-10.177 10.177 2.8a57.116 57.116 0 0 1 22.255 11.928l-10.05.643-5.051.323a1.749 1.749 0 0 0 -1.635 1.635l-.323 5.051zm9.7 39.128 13.227 2.424-5.638 5.638-13.223-2.424zm-1.469 17.12-13.223-2.424 6.051-6.051 13.226 2.425zm-21.868 6.221 5.638-5.638 13.227 2.425-5.638 5.637zm23.5 23.5-2.424-13.227 5.637-5.638 2.425 13.227zm12.271-27.922 2.425 13.226-6.051 6.051-2.424-13.227zm11.07 4.581-5.638 5.638-2.424-13.227 5.638-5.638zm-2.541-18.059-8.631 8.63-9.053 9.053-8.661 8.662-5.872 5.872-2.9-2.9 5.872-5.872 26.345-26.345 11.881-11.88 2.9 2.9zm28.593 4.832 5.638 5.638-2.424 13.227-5.638-5.638zm14.7 14.7-2.428 13.223-6.051-6.051 2.425-13.226zm6.221 21.872-5.638-5.638 2.425-13.227 5.637 5.638zm11.42-9.18-5.879-5.879-8.655-8.656-9.055-9.054-8.631-8.63-13.122-13.123-5.374-5.374-36.695-36.695.175-2.725 2.725-.175 36.695 36.7 5.374 5.374 13.118 13.113 26.345 26.345 5.872 5.872zm-1.147-11.9-5.638-5.637 13.227-2.425 5.638 5.638z"/></svg>