<svg height="512pt" viewBox="-16 0 512 512" width="512pt" xmlns="http://www.w3.org/2000/svg"><path d="m356.710938 60.253906c-7.007813-15.460937-25.136719-29.609375-53.476563-41.511718-26.28125-11.035157-58.453125-18.742188-78.234375-18.742188-13.738281 0-24.546875 3.871094-32.117188 11.503906-6.875 6.925782-10.136718 15.792969-11.660156 25.757813-105.660156 26.632812-181.222656 123.171875-181.222656 233.738281 0 132.886719 107.664062 241 240 241s240-108.113281 240-241c0-89.65625-49.277344-169.445312-123.289062-210.746094zm-146.75 6.695313c-.109376-13.980469-.234376-29.832031 4.214843-34.316407 2.160157-2.175781 7.078125-2.632812 10.824219-2.632812 3.898438 0 9.046875.492188 15 1.453125v28.546875h30v-21.402344c7.152344 2.203125 14.484375 4.808594 21.617188 7.804688 28.160156 11.824218 38.382812 23.582031 38.382812 28.597656s-10.222656 16.773438-38.382812 28.597656c-7.132813 2.996094-14.464844 5.601563-21.617188 7.804688v-21.402344h-30v28.546875c-5.953125.960937-11.101562 1.453125-15 1.453125-3.746094 0-8.664062-.457031-10.824219-2.632812-4.449219-4.484376-4.324219-20.335938-4.214843-34.316407.054687-7.027343.054687-9.070312 0-16.101562zm-17.078126 71.546875c7.570313 7.632812 18.378907 11.503906 32.117188 11.503906 23.664062 0 58.53125-10.136719 81.066406-19.960938 50.441406 20.703126 83.933594 70.574219 83.933594 125.960938 0 74.992188-60.5625 136-135 136s-135-61.007812-135-136c0-49.765625 28-96.265625 70.867188-119.71875.636718.757812 1.300781 1.5 2.015624 2.214844zm47.117188 343.503906c-115.792969 0-210-94.652344-210-211 0-93.800781 62.148438-176.0625 150.070312-202.292969.042969 5.980469.035157 7.9375-.011718 14.109375-.066406 8.625-.230469 17.058594.539062 24.929688-54.015625 27.441406-90.597656 84.367187-90.597656 148.253906 0 91.003906 73.855469 166 165 166 91.011719 0 165-74.851562 165-166 0-59.921875-32.1875-114.578125-82.464844-143.820312 7.539063-5.789063 13.222656-11.890626 16.988282-18.238282 59.34375 38.636719 95.476562 104.808594 95.476562 177.058594 0 116.347656-94.207031 211-210 211zm0 0"/></svg>