<?xml version="1.0" encoding="iso-8859-1"?>
<!-- Generator: Adobe Illustrator 19.0.0, SVG Export Plug-In . SVG Version: 6.00 Build 0)  -->
<svg version="1.1" id="Capa_1" xmlns="http://www.w3.org/2000/svg" xmlns:xlink="http://www.w3.org/1999/xlink" x="0px" y="0px"
	 viewBox="0 0 512 512" style="enable-background:new 0 0 512 512;" xml:space="preserve">
<g>
	<g>
		<g>
			<path d="M172.983,327.728l83.024,119.936l83.024-120l-83.024-138.32L172.983,327.728z M256.007,391.44l-44.976-64.944
				l44.976-74.944l44.976,74.944L256.007,391.44z"/>
			<path d="M448.007,418.736V339.52c0.055-93.358-38.701-182.537-106.992-246.192l6.56-9.824
				C360.914,63.52,368.025,40.027,368.007,16V0h-224v16c-0.018,24.027,7.093,47.52,20.432,67.504l6.56,9.824
				C102.708,156.983,63.952,246.162,64.007,339.52v79.216c-24.999,8.822-38.112,36.239-29.29,61.238
				c6.776,19.201,24.929,32.037,45.29,32.026h352c26.51,0.014,48.012-21.464,48.026-47.974
				C480.044,443.665,467.207,425.512,448.007,418.736z M334.583,32c-2.191,12.061-6.83,23.545-13.632,33.744L311.447,80h-110.88
				l-9.504-14.256C184.261,55.545,179.621,44.061,177.431,32H334.583z M432.007,480h-352c-8.837,0-16-7.163-16-16s7.163-16,16-16h16
				V339.52c-0.034-84.064,34.714-164.396,96-221.936V192h32v-80h32v48h32v-48h25.84c64.995,57.761,102.177,140.567,102.16,227.52
				V448h16c8.837,0,16,7.163,16,16S440.843,480,432.007,480z"/>
		</g>
	</g>
</g>
<g>
</g>
<g>
</g>
<g>
</g>
<g>
</g>
<g>
</g>
<g>
</g>
<g>
</g>
<g>
</g>
<g>
</g>
<g>
</g>
<g>
</g>
<g>
</g>
<g>
</g>
<g>
</g>
<g>
</g>
</svg>
