<?xml version="1.0"?>
<svg xmlns="http://www.w3.org/2000/svg" width="512" height="512" viewBox="0 0 128 128"><g><path d="M64,63.264A27.376,27.376,0,1,0,91.376,90.64,27.407,27.407,0,0,0,64,63.264Zm0,51.252A23.876,23.876,0,1,1,87.876,90.64,23.9,23.9,0,0,1,64,114.516Z"/><path d="M79.07,85.317a1.75,1.75,0,0,0,0-3.5,8.455,8.455,0,0,0-8.256,6.692H65.75V83.445a8.453,8.453,0,0,0,6.691-8.256,1.75,1.75,0,0,0-3.5,0A4.938,4.938,0,0,1,65.75,79.8V75.189a1.75,1.75,0,0,0-3.5,0V79.8a4.939,4.939,0,0,1-3.191-4.606,1.75,1.75,0,0,0-3.5,0,8.453,8.453,0,0,0,6.691,8.256v5.064H57.186a8.455,8.455,0,0,0-8.256-6.692,1.75,1.75,0,1,0,0,3.5,4.94,4.94,0,0,1,4.606,3.192H48.93a1.75,1.75,0,1,0,0,3.5h4.6a4.936,4.936,0,0,1-4.6,3.192,1.75,1.75,0,0,0,0,3.5,8.454,8.454,0,0,0,8.256-6.692H62.25v5.064a8.454,8.454,0,0,0-6.691,8.257,1.75,1.75,0,1,0,3.5,0,4.939,4.939,0,0,1,3.191-4.607v4.607a1.75,1.75,0,0,0,3.5,0v-4.607a4.939,4.939,0,0,1,3.191,4.607,1.75,1.75,0,1,0,3.5,0,8.454,8.454,0,0,0-6.691-8.257V92.009h5.064A8.454,8.454,0,0,0,79.07,98.7a1.75,1.75,0,0,0,0-3.5,4.938,4.938,0,0,1-4.606-3.192H79.07a1.75,1.75,0,0,0,0-3.5H74.464A4.94,4.94,0,0,1,79.07,85.317Z"/><path d="M128,1.752A1.75,1.75,0,0,0,126.246,0h-10a1.75,1.75,0,0,0-1.75,1.75,41.871,41.871,0,0,1-36.586,41.7,7.757,7.757,0,0,0-7.25-5.035H57.34a7.757,7.757,0,0,0-7.25,5.035A41.87,41.87,0,0,1,13.5,1.752,1.75,1.75,0,0,0,11.754,0h-10A1.75,1.75,0,0,0,0,1.752,55.84,55.84,0,0,0,48.144,56.8a37.376,37.376,0,1,0,31.712,0A55.84,55.84,0,0,0,128,1.752ZM57.34,41.92H70.66a4.255,4.255,0,0,1,4.25,4.25v8.719a37.693,37.693,0,0,0-21.82,0V46.17A4.255,4.255,0,0,1,57.34,41.92ZM3.533,3.5h6.5A45.346,45.346,0,0,0,49.59,46.929v6.537A52.334,52.334,0,0,1,3.533,3.5ZM97.876,90.64A33.876,33.876,0,1,1,52.166,58.9a33.252,33.252,0,0,1,7.255-1.819,34.247,34.247,0,0,1,9.158,0A35,35,0,0,1,75.834,58.9,33.931,33.931,0,0,1,97.876,90.64ZM78.41,53.466V46.929A45.346,45.346,0,0,0,117.964,3.5h6.5A52.334,52.334,0,0,1,78.41,53.466Z"/></g></svg>
